<?xml version="1.0" encoding="utf-8"?>
<!-- Generator: Adobe Illustrator 25.3.1, SVG Export Plug-In . SVG Version: 6.00 Build 0)  -->
<svg version="1.1" id="Layer_1" xmlns="http://www.w3.org/2000/svg" xmlns:xlink="http://www.w3.org/1999/xlink" x="0px" y="0px"
	 viewBox="0 0 67 88" style="enable-background:new 0 0 67 88;" xml:space="preserve">
<style type="text/css">
	.st0{fill-rule:evenodd;clip-rule:evenodd;fill:#FFFFFF;}
	.st1{fill-rule:evenodd;clip-rule:evenodd;}
</style>
<g>
	<g>
		<path class="st0" d="M22.71,31.38c1.72,4.35,6.35,7.82,10.39,9.91c0.11,0.05,0.21,0.05,0.32,0c4.04-2.09,8.67-5.56,10.39-9.91
			c0.07-0.17,0.25-0.26,0.42-0.2c0.16,0.05,0.32,0.1,0.48,0.15c0.8,0.27,1.27,0.76,0.95,1.64c-2.78,7.8-7.87,14.6-14.55,19.49
			c-0.01,0.01-0.01,0.01-0.02,0.02c-0.21,0.18-0.48,0.28-0.76,0.28c-0.64,0-1.16-0.52-1.16-1.16c0-0.33,0.14-0.65,0.39-0.87
			c0.01-0.01,0.01-0.01,0.02-0.02c0.02-0.02,0.03-0.03,0.05-0.04c0.53-0.39,1.06-0.79,1.57-1.2c0.08-0.07,0.12-0.15,0.13-0.25
			c0-0.1-0.03-0.19-0.11-0.26c-4.64-4.44-8.2-9.91-10.36-15.96c0-0.01-0.01-0.02-0.01-0.03c-0.12-0.44-0.08-0.89,0.25-1.24
			c0.32-0.33,0.79-0.46,1.22-0.55C22.49,31.14,22.65,31.23,22.71,31.38 M34.64,86.05c-2.83,0.11-5.66-0.11-8.44-0.63
			c-0.02,0-0.04-0.01-0.06-0.01c-2.51-0.62-4.22-2.62-4.22-5.24c0-1.06,0.29-2.1,0.86-2.98c0.19-0.3,0.51-0.46,0.86-0.46h8.17
			c0.32,0,0.61,0.14,0.81,0.4c0.2,0.26,0.26,0.57,0.18,0.88c-0.12,0.45-0.18,0.91-0.18,1.37c0,1.47,0.6,2.99,1.62,4.05
			c0.27,0.28,0.57,0.53,0.9,0.74c0.38,0.25,0.55,0.7,0.43,1.13C35.47,85.74,35.1,86.04,34.64,86.05 M16.77,55.91h32.98
			c0.34,0,0.65,0.16,0.84,0.44c0.19,0.28,0.24,0.62,0.12,0.95l-4.98,13.15c-0.15,0.4-0.53,0.66-0.96,0.66H21.75
			c-0.43,0-0.81-0.26-0.96-0.66L15.81,57.3c-0.12-0.32-0.08-0.66,0.12-0.95C16.12,56.07,16.43,55.91,16.77,55.91 M15.87,54.12
			l0.11-0.22c0.18-0.34,0.56-0.52,0.93-0.52H49.6c0.38,0,0.75,0.17,0.93,0.52l0.11,0.22c0.16,0.3,0.11,0.63-0.1,0.89
			c-0.21,0.25-0.51,0.36-0.83,0.36H16.8c-0.32,0-0.62-0.12-0.83-0.36C15.76,54.75,15.72,54.42,15.87,54.12 M21.97,71.77h22.59
			c0.56,0,1.02,0.46,1.02,1.02v1.81c0,0.56-0.46,1.03-1.02,1.03H21.97c-0.56,0-1.02-0.46-1.02-1.03V72.8
			C20.94,72.24,21.4,71.77,21.97,71.77 M43.52,19.78c0-0.1-0.04-0.19-0.11-0.25c-0.07-0.07-0.16-0.1-0.27-0.09
			c-0.52,0.05-1.04,0.1-1.56,0.1c-4.73,0-8.85-2.24-11.55-6.11c-0.07-0.1-0.17-0.15-0.29-0.15c-0.12,0-0.22,0.06-0.28,0.16
			c-1.51,2.36-3.52,3.78-6.24,4.43c-0.17,0.04-0.28,0.2-0.26,0.38c0.01,0.06,0.01,0.13,0.01,0.2v6.56c0,0.04,0,0.07,0.02,0.1
			c0.83,2.7,2.63,7.93,5.85,8.45c1.59,0.26,3.06-0.69,4.18-1.72c0.13-0.12,0.33-0.12,0.46,0c1.12,1.03,2.59,1.98,4.18,1.72
			c3.2-0.52,5-5.7,5.83-8.39c0.01-0.03,0.02-0.07,0.02-0.1V19.78z"/>
		<path class="st1" d="M20.6,17.56c0-4.98,3.06-10.03,7.51-12.3c-0.4-0.49-0.63-1.04-0.63-1.62c0-1.97,2.59-3.56,5.78-3.56
			c3.19,0,5.78,1.59,5.78,3.56c0,0.58-0.23,1.13-0.63,1.62c4.45,2.28,7.5,7.32,7.51,12.29c0.65,0.37,0.97,1.9,0.74,3.65
			c-0.25,1.89-1.06,3.36-1.83,3.36v3.41c0,0.67-0.08,1.33-0.22,1.98c3.1,1.01,6.14,2.38,8.9,4.12c1.98,1.14,3.12,3.12,3.7,5.27
			c1.3,4.85,1.49,9.78,0.94,14.76c-0.17,1.96-0.93,3.5-2.25,4.94c-1.04,1.26-2.14,2.47-3.34,3.57c1.6-1.15,3.47-1.88,5.46-1.88
			c2.52,0,4.77,0.96,6.4,2.89c1.29,1.52,2.11,3.61,2.11,5.61c0,2.32-0.81,4-2.25,5.76c-0.02,0.02-0.03,0.04-0.05,0.06
			c-17.66,17.15-44.26,17.15-61.91,0C2.29,75.04,2.27,75.02,2.25,75C0.81,73.24,0,71.55,0,69.24c0-2,0.82-4.09,2.11-5.61
			c1.63-1.93,3.88-2.89,6.4-2.89c1.99,0,3.86,0.72,5.45,1.88c-1.2-1.1-2.3-2.32-3.34-3.57C9.3,57.6,8.54,56.06,8.37,54.1
			c-0.54-4.98-0.36-9.9,0.94-14.76c0.58-2.16,1.72-4.13,3.7-5.27c2.76-1.74,5.8-3.12,8.91-4.12c-0.14-0.65-0.22-1.31-0.22-1.98
			v-3.41c-0.77,0-1.57-1.47-1.81-3.36C19.65,19.46,19.97,17.94,20.6,17.56 M33.27,60.8c-2.12,0-3.84,1.22-3.84,2.71
			c0,1.5,1.72,2.71,3.84,2.71c2.12,0,3.84-1.22,3.84-2.71C37.11,62.01,35.39,60.8,33.27,60.8 M35.45,72.88
			c-0.45,0-0.82,0.37-0.82,0.82c0,0.45,0.37,0.82,0.82,0.82h7.96c0.45,0,0.82-0.37,0.82-0.82c0-0.45-0.37-0.82-0.82-0.82H35.45z
			 M23.39,72.87c-0.45,0-0.82,0.37-0.82,0.82c0,0.45,0.37,0.82,0.82,0.82c0.45,0,0.82-0.37,0.82-0.82
			C24.21,73.23,23.84,72.87,23.39,72.87 M29.57,29.26c-0.13,0.03-0.24,0.12-0.27,0.25c-0.03,0.13,0.01,0.26,0.12,0.35
			c1.12,0.9,2.42,1.34,3.85,1.28c1.44,0.06,2.74-0.38,3.86-1.28c0.11-0.09,0.15-0.22,0.12-0.35c-0.03-0.13-0.14-0.23-0.27-0.25
			c-0.6-0.11-1.17-0.34-1.74-0.55c-0.67-0.25-1.25-0.38-1.96-0.35c-0.71-0.03-1.3,0.1-1.96,0.35
			C30.73,28.93,30.17,29.15,29.57,29.26 M31.78,23.67c0.01-0.1-0.02-0.19-0.08-0.27c-0.07-0.08-0.15-0.11-0.25-0.11h-5.81
			c-0.1,0-0.19,0.04-0.26,0.11c-0.07,0.07-0.1,0.17-0.08,0.27c0.19,1.65,1.58,2.9,3.24,2.9C30.2,26.56,31.59,25.31,31.78,23.67
			 M41.23,23.67c0.01-0.1-0.02-0.19-0.08-0.27c-0.07-0.08-0.15-0.11-0.26-0.11h-5.81c-0.1,0-0.19,0.04-0.25,0.11
			c-0.07,0.07-0.1,0.17-0.08,0.27c0.19,1.65,1.58,2.9,3.24,2.9C39.64,26.56,41.04,25.31,41.23,23.67 M34.64,85.71
			c0.3-0.01,0.55-0.21,0.63-0.5c0.08-0.29-0.03-0.59-0.29-0.75c-0.35-0.23-0.67-0.49-0.96-0.79c-1.09-1.12-1.72-2.72-1.72-4.28
			c0-0.49,0.07-0.98,0.19-1.46c0.05-0.21,0.01-0.42-0.12-0.59c-0.13-0.17-0.32-0.27-0.54-0.27h-8.17c-0.24,0-0.44,0.11-0.57,0.31
			c-0.54,0.83-0.81,1.81-0.81,2.79c0,2.46,1.6,4.33,3.96,4.91c0.01,0,0.02,0,0.04,0.01C29.04,85.6,31.82,85.82,34.64,85.71
			 M16.77,56.25c-0.23,0-0.43,0.1-0.56,0.29c-0.13,0.19-0.16,0.41-0.08,0.63l4.98,13.15c0.1,0.27,0.35,0.44,0.64,0.44h23.02
			c0.29,0,0.54-0.17,0.64-0.44l4.98-13.15c0.08-0.22,0.05-0.44-0.08-0.63c-0.13-0.19-0.33-0.3-0.56-0.3H16.77z M16.18,54.27
			c-0.09,0.17-0.07,0.35,0.06,0.51c0.13,0.16,0.33,0.24,0.57,0.24h32.91c0.24,0,0.44-0.08,0.57-0.24c0.13-0.16,0.15-0.34,0.06-0.51
			l-0.11-0.22c-0.11-0.21-0.35-0.33-0.63-0.33H16.92c-0.28,0-0.52,0.13-0.63,0.33L16.18,54.27z M21.97,72.12
			c-0.38,0-0.68,0.31-0.68,0.68v1.81c0,0.38,0.31,0.68,0.68,0.68h22.59c0.38,0,0.68-0.31,0.68-0.68V72.8c0-0.38-0.31-0.68-0.68-0.68
			H21.97z M43.19,19.78c-0.53,0.06-1.06,0.1-1.59,0.1c-4.84,0-9.07-2.29-11.82-6.25c-1.56,2.44-3.64,3.9-6.45,4.57
			c0.01,0.08,0.02,0.16,0.02,0.24v6.57c0.77,2.53,2.55,7.72,5.58,8.22c1.48,0.24,2.86-0.68,3.89-1.64c0.26-0.24,0.66-0.24,0.93,0
			c1.04,0.95,2.42,1.87,3.89,1.64c3.02-0.49,4.79-5.64,5.56-8.16L43.19,19.78z M30.91,52.19c6.62-4.85,11.68-11.59,14.43-19.32
			c0.24-0.68-0.11-0.99-0.74-1.2c-0.16-0.05-0.32-0.1-0.48-0.15c-1.75,4.43-6.43,7.95-10.55,10.09c-0.2,0.11-0.43,0.11-0.63,0
			c-4.12-2.14-8.8-5.66-10.55-10.09c-0.35,0.07-0.79,0.18-1.04,0.45c-0.24,0.26-0.25,0.59-0.17,0.92c2.14,6,5.67,11.43,10.28,15.83
			c0.15,0.14,0.22,0.32,0.21,0.52c-0.01,0.2-0.1,0.38-0.25,0.5c-0.52,0.42-1.04,0.82-1.59,1.21c-0.01,0.02-0.03,0.03-0.04,0.04
			c-0.17,0.16-0.27,0.38-0.27,0.61c0,0.45,0.37,0.82,0.82,0.82c0.2,0,0.39-0.07,0.53-0.2C30.88,52.21,30.9,52.2,30.91,52.19"/>
	</g>
</g>
</svg>
